<?xml version="1.0" encoding="UTF-8"?>
<!DOCTYPE svg PUBLIC "-//W3C//DTD SVG 1.1//EN" "http://www.w3.org/Graphics/SVG/1.1/DTD/svg11.dtd">
<svg id="mysvg" xmlns="http://www.w3.org/2000/svg" xml:space="preserve" width="100%" height="100%" version="1.1" style="shape-rendering:geometricPrecision; text-rendering:geometricPrecision; image-rendering:optimizeQuality; fill-rule:evenodd; clip-rule:evenodd"
viewBox="0 0 2696 742" xmlns:xlink="http://www.w3.org/1999/xlink">

<defs>
<style type="text/css" id="logosheet">
<![CDATA[   
.str0 {
	stroke:#aaa;
	stroke-width:5;
	stroke-linejoin:round;
	fill:none;
	stroke-dasharray:0 999;
	animation:inherit;
	}

#mikeanim {
	}	

.animationclass {
	animation: dash 4s linear forwards;
	}
	
@keyframes dash{
	0%  {stroke-dasharray:0 999;}
	100%{stroke-dasharray:999 0;}
	}
	
.fil0 {
fill:none;
}

.str1 {
	stroke:#AF3;
	stroke-width:5;
	stroke-dasharray:0 645;
	animation: dash2 4s linear forwards;
	}

@keyframes dash2{
	0%  {stroke-dasharray:0 645;}
	100%{stroke-dasharray:645 0;}
	}	
	
.fil2 {fill:none;fill-rule:nonzero}
.fil1 {fill:#AF3;fill-rule:nonzero;fill-opacity:0;animation: fill1 2s linear 4s forwards;}

@keyframes fill1 {
	0%  {fill-opacity:0;}
	100%{fill-opacity:1;}
	} 

]]>
</style>

<script type="text/javascript">
<![CDATA[
"use strict";

window.onload = function(){
console.log("hello");   
var mousecheck = document.getElementById("mysvg");

mousecheck.onmouseover = function(){
	var element = document.getElementById("mikeanim");
	element.classList.remove("animationclass");
	setTimeout(function(){element.classList.add("animationclass");},1);	//classlistnotsupported in IE9
	}
}
]]>
</script> 

 </defs>

 <g id="mikeanim" class="animationclass">
   <path class="fil0 str0" d="M209,145 3,26 44,2 291,145 85,264 85,217z "/>
   <path class="fil0 str0" d="M85 264c69,-39 138,-79 206,-119l0 48 -206 119 0 191 -41 23c0,-111 0,-317 0,-428l41 24 0 142z"/>
   <path class="fil0 str0" d="M44 98c0,0 0,390 0,428l-12 -20 -29 -51 0 -429c68,40 137,80 206,119l-41 24 -124 -71z"/>
   <path class="fil0 str0" d="M403 319c-24,-33 -63,-54 -106,-54 -44,0 -83,21 -107,54 25,-32 68,-45 107,-31 5,2 11,4 17,7 24,15 40,38 45,64 4,20 2,41 -7,60 -2,5 -4,9 -7,13 -11,14 -29,24 -48,24 -20,0 -38,-10 -48,-24 12,17 29,30 48,36 25,9 53,7 78,-7 6,-4 11,-7 15,-11 31,-27 41,-71 26,-109 -4,-7 -8,-15 -13,-22z"/>
   <path class="fil0 str0" d="M416 341c15,38 5,82 -26,109 -4,4 -9,7 -15,11 -25,14 -53,16 -78,7 -19,-6 -36,-19 -48,-36 -3,-4 -6,-8 -8,-13 -3,-7 -4,-15 -4,-23 0,-31 23,-56 53,-60 -22,2 -41,10 -56,23 -20,18 -33,44 -33,72 0,7 1,13 2,19 8,39 40,70 81,76 4,0 8,0 13,0 4,0 8,0 13,0 66,-7 117,-62 117,-130 0,-20 -4,-38 -11,-55z"/>
   <path class="fil0 str0" d="M352 419c9,-19 11,-40 7,-60 -5,-26 -21,-49 -45,-64 -6,-3 -12,-5 -17,-7 -39,-14 -82,-1 -107,31 -4,7 -9,15 -12,22 -8,17 -12,35 -12,55 0,68 52,123 118,130 -41,-6 -73,-37 -81,-76 -1,-6 -2,-12 -2,-19 0,-28 13,-54 33,-72 15,-13 34,-21 56,-23 2,0 4,0 7,0 2,0 4,0 7,0 30,4 53,29 53,60 0,8 -2,16 -5,23z"/>
   <path class="fil0 str0" d="M948 485l381 0 0 0 24 0 24 0 -12 21 -12 20 -429 0 -48 0c56,-96 64,-110 120,-206l23 41 -71 124z"/>
   <path class="fil0 str0" d="M996 320c-40,69 -80,138 -120,206l-23 -41 143 -247c39,68 79,137 119,206l-48 0 -71 -124z"/>
   <path class="fil0 str0" d="M1305,444 1186,238 1234,238 1377,485 948,485 972,444z "/>
   <path class="fil0 str0" d="M1186 320c0,0 -28,49 -48,83l-23 -42 71 -123c40,68 79,137 119,206l-48 0 -71 -124z"/>
   <path class="fil0 str0" d="M1115 444l-119 -206 47 0 95 165c20,-34 4,-6 48,-83l24 41 -48 83 -47 0z"/>
   <path class="fil0 str0" d="M544 503l-42 23c0,-111 0,-317 0,-428l42 24c0,133 0,107 0,381z"/>
   <path class="fil0 str0" d="M502 98c0,0 0,390 0,428l-11 -20 -30 -51 0 -429 41 72z"/>
   <path class="fil0 str0" d="M544,122 461,26 502,98z "/>
   <path class="fil0 str0" d="M592,286 592,286 568,327 592,286z "/>
   <path class="fil0 str0" d="M1788,242 1788,98 1829,122 1829,201 1849,201 1825,242z "/>
   <path class="fil0 str0" d="M1829,503 1788,526 1788,284 1829,284z "/>
   <path class="fil0 str0" d="M1788,98 1788,242 1825,242 1849,284 1788,284 1788,526 1746,455 1746,26z "/>
   <path class="fil0 str0" d="M1829,122 1746,26 1788,98z "/>
   <path class="fil0 str0" d="M1873,242 1849,284 1825,242 1849,201 1873,242z "/>
   <path class="fil0 str0" d="M1991 373l-41 71c0,-111 0,-235 0,-346l41 24 0 251z"/>
   <path class="fil0 str0" d="M2093,279 2202,468 2236,527 2188,527 2129,424 2129,424 2069,320z "/>
   <path class="fil0 str0" d="M1950,98 1950,444 2069,238 2117,238 1950,526 1909,455 1909,26z "/>
   <path class="fil0 str0" d="M1991,122 1909,26 1950,98z "/>
   <path class="fil0 str0" d="M1950,526 2069,320 2077,334 2093,361 1998,526z "/>
   <path class="fil0 str0" d="M2117,238 2260,485 2236,526 2093,279z "/>
   <path class="fil0 str0" d="M759,492 807,410 807,410 830,368 830,368 878,286 854,286 843,286 830,286 830,286 813,286 592,286 592,286 568,327 664,327 664,327 711,327 711,327 711,327 807,327 795,348 795,348 759,410 747,430 735,451z "/>
   <path class="fil0 str0" d="M676,430 640,368 783,368 807,327 664,327 568,327 688,533 592,698 616,740 735,533 688,451 688,451 676,430z "/>
   <path class="fil0 str0" d="M902,327 878,286 759,492 688,368 688,368 688,368 640,368 735,533 616,740 664,740z "/>
   <path class="fil0 str0" d="M2487,336 2693,217 2652,193 2405,336 2693,503 2693,455z "/>
   <path class="fil0 str0" d="M2405,336 2405,384 2652,526 2693,503z "/>
   <path class="fil0 str0" d="M2693 264l0 -47c-68,40 -137,79 -206,119l41 24 111 -64 0 0 21 -12 33 -20z"/>
   <path class="fil0 str0" d="M1583,238 1535,238 1392,485 1416,526z "/>
   <path class="fil0 str0" d="M1535,320 1416,526 1464,526 1487,485 1630,485 1654,526 1702,526 1678,485 1654,444 1654,444 1606,444 1511,444 1559,361z "/>
   <path class="fil0 str0" d="M1654,444 1654,444 1569,297 1568,294 1566,291 1564,288 1562,285 1561,282 1559,279 1583,238 1726,485 1726,485 1714,506 1702,526 1702,526 1702,526 1654,444z "/>
   <path class="fil0 str0" d="M1583 403l-48 0 -24 41 95 0 -23 -41zm23 41l48 0c-40,-69 -55,-96 -95,-165l-24 41 71 124z"/>
   <path class="fil0 str0" d="M2356 501l-41 23c0,-111 0,-79 0,-190l41 24 0 143z"/>
   <path class="fil0 str0" d="M2315,334 2315,524 2303,504 2274,453 2274,262 2275,265 2275,265z "/>
   <path class="fil0 str0" d="M2274,114 2274,114 2274,81 2274,72 2274,24 2315,96 2315,186 2310,177 2275,115 2274,114z "/>
   <path class="fil0 str0" d="M2356,120 2274,24 2315,96z "/>
   <path class="fil0 str0" d="M2274,262 2356,358 2315,334z "/>
   <path class="fil0 str0" d="M2315,96 2356,120 2356,162 2315,186z "/>
  </g>
<g id="Dvectors">
  <path class="fil1" d="M451 700l14 0c12,0 21,-3 27,-10 6,-6 9,-16 9,-29 0,-12 -3,-21 -9,-27 -6,-6 -15,-9 -27,-9l-14 0 0 75zm15 -103c9,0 16,0 22,2 7,1 12,4 17,7 9,5 16,13 21,23 5,10 7,20 7,32 0,21 -5,37 -17,49 -11,12 -27,18 -47,18l-27 0c-8,0 -13,-1 -16,-4 -3,-3 -4,-8 -4,-15l0 -91c0,-8 1,-14 4,-17 3,-3 9,-4 16,-4l24 0z"/>
  <path id="1" class="fil1" d="M844 597c7,0 12,1 16,3 4,2 5,6 5,11 0,4 -1,8 -5,10 -3,2 -9,4 -16,4l-24 0 0 23 21 0c7,0 12,1 16,3 3,3 5,6 5,11 0,5 -2,8 -5,10 -4,3 -9,4 -16,4l-21 0 0 24 25 0c7,0 13,1 16,4 3,2 5,5 5,10 0,5 -2,8 -5,11 -3,2 -9,3 -16,3l-35 0c-8,0 -13,-1 -16,-4 -3,-3 -4,-8 -4,-15l0 -91c0,-8 1,-14 4,-17 3,-3 9,-4 16,-4l34 0z"/>
  <path id="2" class="fil1" d="M1209 687c0,14 -5,24 -14,32 -9,8 -22,13 -37,13 -12,0 -22,-3 -30,-7 -8,-4 -12,-9 -12,-15 0,-4 1,-7 4,-9 2,-3 6,-4 10,-4 3,0 7,1 14,3 7,3 13,4 18,4 4,0 8,-2 11,-4 3,-3 4,-6 4,-10 0,-4 -1,-7 -4,-10 -3,-2 -9,-5 -19,-8 -14,-4 -23,-9 -29,-15 -5,-5 -8,-13 -8,-22 0,-12 4,-22 13,-30 9,-8 21,-12 35,-12 10,0 19,2 25,6 7,3 11,8 11,14 0,4 -2,7 -4,9 -2,2 -6,3 -10,3 -2,0 -6,0 -11,-2 -6,-2 -10,-2 -12,-2 -5,0 -8,1 -11,3 -3,2 -4,5 -4,8 0,5 6,10 17,14 3,0 5,1 7,1 12,5 22,10 27,16 6,7 9,15 9,24z"/>
  <path id="3" class="fil1" d="M1495 708c0,8 -2,13 -4,16 -3,4 -6,6 -11,6 -6,0 -9,-2 -12,-6 -2,-3 -3,-8 -3,-16l0 -92c0,-7 1,-12 3,-16 3,-3 6,-5 12,-5 5,0 8,2 11,5 2,4 4,9 4,16l0 92z"/>
  <path id="4" class="fil1" d="M1843 677l-10 0c-7,0 -13,-1 -16,-4 -4,-2 -5,-5 -5,-10 0,-5 1,-8 5,-11 3,-2 9,-3 16,-3l22 0c7,0 13,2 16,5 3,3 5,8 5,15 0,19 -6,34 -17,45 -11,12 -26,18 -45,18 -18,0 -33,-7 -45,-19 -12,-13 -17,-30 -17,-51 0,-21 6,-38 18,-50 12,-13 28,-19 48,-19 13,0 25,3 34,8 10,6 14,12 14,19 0,4 -1,7 -4,10 -2,3 -5,4 -8,4 -3,0 -8,-2 -15,-6 -8,-4 -15,-7 -22,-7 -10,0 -18,4 -24,11 -6,7 -9,17 -9,30 0,12 3,22 9,30 6,8 14,11 24,11 8,0 14,-2 19,-7 5,-5 7,-11 7,-19z"/>
  <path id="5" class="fil1" d="M2161 708c0,8 -1,13 -4,16 -2,4 -6,6 -11,6 -5,0 -9,-2 -11,-6 -3,-3 -4,-8 -4,-16l0 -93c0,-7 1,-12 3,-15 3,-3 6,-5 11,-5 3,0 6,1 8,2 2,2 5,4 8,8l55 73 0 -62c0,-7 1,-12 4,-16 2,-3 6,-5 11,-5 5,0 9,2 11,5 3,4 4,9 4,16l0 96c0,6 -1,11 -3,14 -3,3 -6,4 -11,4 -3,0 -6,0 -9,-2 -2,-2 -5,-5 -8,-8l-54 -72 0 60z"/>
  <path id="6" class="fil2 str1" d="M451 700l14 0c12,0 21,-3 27,-10 6,-6 9,-16 9,-29 0,-12 -3,-21 -9,-27 -6,-6 -15,-9 -27,-9l-14 0 0 75zm15 -103c9,0 16,0 22,2 7,1 12,4 17,7 9,5 16,13 21,23 5,10 7,20 7,32 0,21 -5,37 -17,49 -11,12 -27,18 -47,18l-27 0c-8,0 -13,-1 -16,-4 -3,-3 -4,-8 -4,-15l0 -91c0,-8 1,-14 4,-17 3,-3 9,-4 16,-4l24 0z"/>
  <path id="7" class="fil2 str1" d="M844 597c7,0 12,1 16,3 4,2 5,6 5,11 0,4 -1,8 -5,10 -3,2 -9,4 -16,4l-24 0 0 23 21 0c7,0 12,1 16,3 3,3 5,6 5,11 0,5 -2,8 -5,10 -4,3 -9,4 -16,4l-21 0 0 24 25 0c7,0 13,1 16,4 3,2 5,5 5,10 0,5 -2,8 -5,11 -3,2 -9,3 -16,3l-35 0c-8,0 -13,-1 -16,-4 -3,-3 -4,-8 -4,-15l0 -91c0,-8 1,-14 4,-17 3,-3 9,-4 16,-4l34 0z"/>
  <path id="8" class="fil2 str1" d="M1209 687c0,14 -5,24 -14,32 -9,8 -22,13 -37,13 -12,0 -22,-3 -30,-7 -8,-4 -12,-9 -12,-15 0,-4 1,-7 4,-9 2,-3 6,-4 10,-4 3,0 7,1 14,3 7,3 13,4 18,4 4,0 8,-2 11,-4 3,-3 4,-6 4,-10 0,-4 -1,-7 -4,-10 -3,-2 -9,-5 -19,-8 -14,-4 -23,-9 -29,-15 -5,-5 -8,-13 -8,-22 0,-12 4,-22 13,-30 9,-8 21,-12 35,-12 10,0 19,2 25,6 7,3 11,8 11,14 0,4 -2,7 -4,9 -2,2 -6,3 -10,3 -2,0 -6,0 -11,-2 -6,-2 -10,-2 -12,-2 -5,0 -8,1 -11,3 -3,2 -4,5 -4,8 0,5 6,10 17,14 3,0 5,1 7,1 12,5 22,10 27,16 6,7 9,15 9,24z"/>
  <path id="9" class="fil2 str1" d="M1495 708c0,8 -2,13 -4,16 -3,4 -6,6 -11,6 -6,0 -9,-2 -12,-6 -2,-3 -3,-8 -3,-16l0 -92c0,-7 1,-12 3,-16 3,-3 6,-5 12,-5 5,0 8,2 11,5 2,4 4,9 4,16l0 92z"/>
  <path id="10" class="fil2 str1" d="M1843 677l-10 0c-7,0 -13,-1 -16,-4 -4,-2 -5,-5 -5,-10 0,-5 1,-8 5,-11 3,-2 9,-3 16,-3l22 0c7,0 13,2 16,5 3,3 5,8 5,15 0,19 -6,34 -17,45 -11,12 -26,18 -45,18 -18,0 -33,-7 -45,-19 -12,-13 -17,-30 -17,-51 0,-21 6,-38 18,-50 12,-13 28,-19 48,-19 13,0 25,3 34,8 10,6 14,12 14,19 0,4 -1,7 -4,10 -2,3 -5,4 -8,4 -3,0 -8,-2 -15,-6 -8,-4 -15,-7 -22,-7 -10,0 -18,4 -24,11 -6,7 -9,17 -9,30 0,12 3,22 9,30 6,8 14,11 24,11 8,0 14,-2 19,-7 5,-5 7,-11 7,-19z"/>
  <path id="11" class="fil2 str1" d="M2161 708c0,8 -1,13 -4,16 -2,4 -6,6 -11,6 -5,0 -9,-2 -11,-6 -3,-3 -4,-8 -4,-16l0 -93c0,-7 1,-12 3,-15 3,-3 6,-5 11,-5 3,0 6,1 8,2 2,2 5,4 8,8l55 73 0 -62c0,-7 1,-12 4,-16 2,-3 6,-5 11,-5 5,0 9,2 11,5 3,4 4,9 4,16l0 96c0,6 -1,11 -3,14 -3,3 -6,4 -11,4 -3,0 -6,0 -9,-2 -2,-2 -5,-5 -8,-8l-54 -72 0 60z"/>
 </g>
  </svg>
